<?xml version="1.0" encoding="UTF-8" standalone="no"?>
<!DOCTYPE svg PUBLIC "-//W3C//DTD SVG 1.1//EN"
 "http://www.w3.org/Graphics/SVG/1.1/DTD/svg11.dtd">
<!-- Generated by graphviz version 2.44.0 (20200408.0750)
 -->
<!-- Title: dependencies Pages: 1 -->
<svg width="815pt" height="211pt"
 viewBox="0.00 0.00 815.00 211.00" xmlns="http://www.w3.org/2000/svg" xmlns:xlink="http://www.w3.org/1999/xlink">
<g id="graph0" class="graph" transform="scale(1 1) rotate(0) translate(4 207)">
<title>dependencies</title>
<polygon fill="white" stroke="transparent" points="-4,4 -4,-207 811,-207 811,4 -4,4"/>
<text text-anchor="start" x="382.51" y="-42.4" font-family="sans-serif" font-weight="bold" font-size="14.00">Legend</text>
<polygon fill="#ffffb3" stroke="transparent" points="169.5,-10 169.5,-30 189.5,-30 189.5,-10 169.5,-10"/>
<text text-anchor="start" x="193.13" y="-15.4" font-family="sans-serif" font-size="14.00"> &#160;Declarations</text>
<polygon fill="#8dd3c7" stroke="transparent" points="282.5,-10 282.5,-30 302.5,-30 302.5,-10 282.5,-10"/>
<text text-anchor="start" x="306.23" y="-15.4" font-family="sans-serif" font-size="14.00"> &#160;Module</text>
<polygon fill="#80b1d3" stroke="transparent" points="368.5,-10 368.5,-30 388.5,-30 388.5,-10 368.5,-10"/>
<text text-anchor="start" x="392.28" y="-15.4" font-family="sans-serif" font-size="14.00"> &#160;Bootstrap</text>
<polygon fill="#fdb462" stroke="transparent" points="465.5,-10 465.5,-30 485.5,-30 485.5,-10 465.5,-10"/>
<text text-anchor="start" x="489.17" y="-15.4" font-family="sans-serif" font-size="14.00"> &#160;Providers</text>
<polygon fill="#fb8072" stroke="transparent" points="561.5,-10 561.5,-30 581.5,-30 581.5,-10 561.5,-10"/>
<text text-anchor="start" x="585.23" y="-15.4" font-family="sans-serif" font-size="14.00"> &#160;Exports</text>
<g id="clust1" class="cluster">
<title>cluster_AppModule</title>
<polygon fill="none" stroke="black" stroke-dasharray="1,5" points="8,-70 8,-195 799,-195 799,-70 8,-70"/>
</g>
<g id="clust6" class="cluster">
<title>cluster_AppModule_providers</title>
<polygon fill="none" stroke="black" points="661,-78 661,-130 791,-130 791,-78 661,-78"/>
</g>
<g id="clust3" class="cluster">
<title>cluster_AppModule_imports</title>
<polygon fill="none" stroke="black" points="16,-78 16,-130 653,-130 653,-78 16,-78"/>
</g>
<!-- AuthModule -->
<g id="node1" class="node">
<title>AuthModule</title>
<polygon fill="#8dd3c7" stroke="black" points="644.55,-122 641.55,-126 620.55,-126 617.55,-122 557.45,-122 557.45,-86 644.55,-86 644.55,-122"/>
<text text-anchor="middle" x="601" y="-99.8" font-family="Times,serif" font-size="14.00">AuthModule</text>
</g>
<!-- AppModule -->
<g id="node6" class="node">
<title>AppModule</title>
<polygon fill="#8dd3c7" stroke="black" points="445.66,-187 442.66,-191 421.66,-191 418.66,-187 362.34,-187 362.34,-151 445.66,-151 445.66,-187"/>
<text text-anchor="middle" x="404" y="-164.8" font-family="Times,serif" font-size="14.00">AppModule</text>
</g>
<!-- AuthModule&#45;&gt;AppModule -->
<g id="edge1" class="edge">
<title>AuthModule&#45;&gt;AppModule</title>
<path fill="none" stroke="black" d="M601,-122.02C601,-139.37 601,-163 601,-163 601,-163 455.78,-163 455.78,-163"/>
<polygon fill="black" stroke="black" points="455.78,-159.5 445.78,-163 455.78,-166.5 455.78,-159.5"/>
</g>
<!-- LogrequestModule -->
<g id="node2" class="node">
<title>LogrequestModule</title>
<polygon fill="#8dd3c7" stroke="black" points="539.03,-122 536.03,-126 515.03,-126 512.03,-122 416.97,-122 416.97,-86 539.03,-86 539.03,-122"/>
<text text-anchor="middle" x="478" y="-99.8" font-family="Times,serif" font-size="14.00">LogrequestModule</text>
</g>
<!-- LogrequestModule&#45;&gt;AppModule -->
<g id="edge2" class="edge">
<title>LogrequestModule&#45;&gt;AppModule</title>
<path fill="none" stroke="black" d="M431.28,-122.11C431.28,-122.11 431.28,-140.99 431.28,-140.99"/>
<polygon fill="black" stroke="black" points="427.78,-140.99 431.28,-150.99 434.78,-140.99 427.78,-140.99"/>
</g>
<!-- ServerConfigModule -->
<g id="node3" class="node">
<title>ServerConfigModule</title>
<polygon fill="#8dd3c7" stroke="black" points="398.47,-122 395.47,-126 374.47,-126 371.47,-122 263.53,-122 263.53,-86 398.47,-86 398.47,-122"/>
<text text-anchor="middle" x="331" y="-99.8" font-family="Times,serif" font-size="14.00">ServerConfigModule</text>
</g>
<!-- ServerConfigModule&#45;&gt;AppModule -->
<g id="edge3" class="edge">
<title>ServerConfigModule&#45;&gt;AppModule</title>
<path fill="none" stroke="black" d="M380.33,-122.11C380.33,-122.11 380.33,-140.99 380.33,-140.99"/>
<polygon fill="black" stroke="black" points="376.83,-140.99 380.33,-150.99 383.83,-140.99 376.83,-140.99"/>
</g>
<!-- UserModule -->
<g id="node4" class="node">
<title>UserModule</title>
<polygon fill="#8dd3c7" stroke="black" points="245.98,-122 242.98,-126 221.98,-126 218.98,-122 160.02,-122 160.02,-86 245.98,-86 245.98,-122"/>
<text text-anchor="middle" x="203" y="-99.8" font-family="Times,serif" font-size="14.00">UserModule</text>
</g>
<!-- UserModule&#45;&gt;AppModule -->
<g id="edge4" class="edge">
<title>UserModule&#45;&gt;AppModule</title>
<path fill="none" stroke="black" d="M203,-122.02C203,-139.37 203,-163 203,-163 203,-163 351.86,-163 351.86,-163"/>
<polygon fill="black" stroke="black" points="351.86,-166.5 361.86,-163 351.86,-159.5 351.86,-166.5"/>
</g>
<!-- WebclientModule -->
<g id="node5" class="node">
<title>WebclientModule</title>
<polygon fill="#8dd3c7" stroke="black" points="141.58,-122 138.58,-126 117.58,-126 114.58,-122 24.42,-122 24.42,-86 141.58,-86 141.58,-122"/>
<text text-anchor="middle" x="83" y="-99.8" font-family="Times,serif" font-size="14.00">WebclientModule</text>
</g>
<!-- WebclientModule&#45;&gt;AppModule -->
<g id="edge5" class="edge">
<title>WebclientModule&#45;&gt;AppModule</title>
<path fill="none" stroke="black" d="M83,-122.28C83,-143.32 83,-175 83,-175 83,-175 352.03,-175 352.03,-175"/>
<polygon fill="black" stroke="black" points="352.03,-178.5 362.03,-175 352.03,-171.5 352.03,-178.5"/>
</g>
<!-- AppService -->
<g id="node7" class="node">
<title>AppService</title>
<ellipse fill="#fdb462" stroke="black" cx="726" cy="-104" rx="56.74" ry="18"/>
<text text-anchor="middle" x="726" y="-99.8" font-family="Times,serif" font-size="14.00">AppService</text>
</g>
<!-- AppService&#45;&gt;AppModule -->
<g id="edge6" class="edge">
<title>AppService&#45;&gt;AppModule</title>
<path fill="none" stroke="black" d="M726,-122.28C726,-143.32 726,-175 726,-175 726,-175 455.77,-175 455.77,-175"/>
<polygon fill="black" stroke="black" points="455.77,-171.5 445.77,-175 455.77,-178.5 455.77,-171.5"/>
</g>
</g>
</svg>
