<?xml version="1.0" encoding="UTF-8" standalone="no"?>
<!DOCTYPE svg PUBLIC "-//W3C//DTD SVG 1.1//EN"
 "http://www.w3.org/Graphics/SVG/1.1/DTD/svg11.dtd">
<!-- Generated by graphviz version 2.44.0 (20200408.0750)
 -->
<!-- Title: dependencies Pages: 1 -->
<svg width="1267pt" height="363pt"
 viewBox="0.00 0.00 1267.00 363.00" xmlns="http://www.w3.org/2000/svg" xmlns:xlink="http://www.w3.org/1999/xlink">
<g id="graph0" class="graph" transform="scale(1 1) rotate(0) translate(4 359)">
<title>dependencies</title>
<polygon fill="white" stroke="transparent" points="-4,4 -4,-359 1263,-359 1263,4 -4,4"/>
<text text-anchor="start" x="608.51" y="-42.4" font-family="sans-serif" font-weight="bold" font-size="14.00">Legend</text>
<polygon fill="#ffffb3" stroke="transparent" points="395.5,-10 395.5,-30 415.5,-30 415.5,-10 395.5,-10"/>
<text text-anchor="start" x="419.13" y="-15.4" font-family="sans-serif" font-size="14.00"> &#160;Declarations</text>
<polygon fill="#8dd3c7" stroke="transparent" points="508.5,-10 508.5,-30 528.5,-30 528.5,-10 508.5,-10"/>
<text text-anchor="start" x="532.23" y="-15.4" font-family="sans-serif" font-size="14.00"> &#160;Module</text>
<polygon fill="#80b1d3" stroke="transparent" points="594.5,-10 594.5,-30 614.5,-30 614.5,-10 594.5,-10"/>
<text text-anchor="start" x="618.28" y="-15.4" font-family="sans-serif" font-size="14.00"> &#160;Bootstrap</text>
<polygon fill="#fdb462" stroke="transparent" points="691.5,-10 691.5,-30 711.5,-30 711.5,-10 691.5,-10"/>
<text text-anchor="start" x="715.17" y="-15.4" font-family="sans-serif" font-size="14.00"> &#160;Providers</text>
<polygon fill="#fb8072" stroke="transparent" points="787.5,-10 787.5,-30 807.5,-30 807.5,-10 787.5,-10"/>
<text text-anchor="start" x="811.23" y="-15.4" font-family="sans-serif" font-size="14.00"> &#160;Exports</text>
<g id="clust1" class="cluster">
<title>cluster_AppModule</title>
<polygon fill="none" stroke="black" stroke-dasharray="1,5" points="298,-146 298,-347 983,-347 983,-146 298,-146"/>
</g>
<g id="clust3" class="cluster">
<title>cluster_AppModule_imports</title>
<polygon fill="none" stroke="black" points="444,-154 444,-282 975,-282 975,-154 444,-154"/>
</g>
<g id="clust6" class="cluster">
<title>cluster_AppModule_providers</title>
<polygon fill="none" stroke="black" points="306,-230 306,-282 436,-282 436,-230 306,-230"/>
</g>
<g id="clust7" class="cluster">
<title>cluster_AuthModule</title>
<polygon fill="none" stroke="black" stroke-dasharray="1,5" points="8,-146 8,-214 290,-214 290,-146 8,-146"/>
</g>
<g id="clust12" class="cluster">
<title>cluster_AuthModule_providers</title>
<polygon fill="none" stroke="black" points="16,-154 16,-206 282,-206 282,-154 16,-154"/>
</g>
<g id="clust13" class="cluster">
<title>cluster_LogrequestModule</title>
<polygon fill="none" stroke="black" stroke-dasharray="1,5" points="346,-70 346,-138 544,-138 544,-70 346,-70"/>
</g>
<g id="clust18" class="cluster">
<title>cluster_LogrequestModule_providers</title>
<polygon fill="none" stroke="black" points="354,-78 354,-130 536,-130 536,-78 354,-78"/>
</g>
<g id="clust19" class="cluster">
<title>cluster_ServerConfigModule</title>
<polygon fill="none" stroke="black" stroke-dasharray="1,5" points="552,-70 552,-138 768,-138 768,-70 552,-70"/>
</g>
<g id="clust24" class="cluster">
<title>cluster_ServerConfigModule_providers</title>
<polygon fill="none" stroke="black" points="560,-78 560,-130 760,-130 760,-78 560,-78"/>
</g>
<g id="clust25" class="cluster">
<title>cluster_UserModule</title>
<polygon fill="none" stroke="black" stroke-dasharray="1,5" points="991,-222 991,-290 1251,-290 1251,-222 991,-222"/>
</g>
<g id="clust28" class="cluster">
<title>cluster_UserModule_exports</title>
<polygon fill="none" stroke="black" points="1139,-230 1139,-282 1243,-282 1243,-230 1139,-230"/>
</g>
<g id="clust30" class="cluster">
<title>cluster_UserModule_providers</title>
<polygon fill="none" stroke="black" points="999,-230 999,-282 1131,-282 1131,-230 999,-230"/>
</g>
<g id="clust31" class="cluster">
<title>cluster_WebclientModule</title>
<polygon fill="none" stroke="black" stroke-dasharray="1,5" points="776,-70 776,-138 968,-138 968,-70 776,-70"/>
</g>
<g id="clust36" class="cluster">
<title>cluster_WebclientModule_providers</title>
<polygon fill="none" stroke="black" points="784,-78 784,-130 960,-130 960,-78 784,-78"/>
</g>
<!-- AuthModule -->
<g id="node1" class="node">
<title>AuthModule</title>
<polygon fill="#8dd3c7" stroke="black" points="579.55,-274 576.55,-278 555.55,-278 552.55,-274 492.45,-274 492.45,-238 579.55,-238 579.55,-274"/>
<text text-anchor="middle" x="536" y="-251.8" font-family="Times,serif" font-size="14.00">AuthModule</text>
</g>
<!-- AppModule -->
<g id="node6" class="node">
<title>AppModule</title>
<polygon fill="#8dd3c7" stroke="black" points="675.66,-339 672.66,-343 651.66,-343 648.66,-339 592.34,-339 592.34,-303 675.66,-303 675.66,-339"/>
<text text-anchor="middle" x="634" y="-316.8" font-family="Times,serif" font-size="14.00">AppModule</text>
</g>
<!-- AuthModule&#45;&gt;AppModule -->
<g id="edge1" class="edge">
<title>AuthModule&#45;&gt;AppModule</title>
<path fill="none" stroke="black" d="M579.62,-265C600.19,-265 620.29,-265 620.29,-265 620.29,-265 620.29,-292.97 620.29,-292.97"/>
<polygon fill="black" stroke="black" points="616.79,-292.97 620.29,-302.97 623.79,-292.97 616.79,-292.97"/>
</g>
<!-- LogrequestModule -->
<g id="node2" class="node">
<title>LogrequestModule</title>
<polygon fill="#8dd3c7" stroke="black" points="574.03,-198 571.03,-202 550.03,-202 547.03,-198 451.97,-198 451.97,-162 574.03,-162 574.03,-198"/>
<text text-anchor="middle" x="513" y="-175.8" font-family="Times,serif" font-size="14.00">LogrequestModule</text>
</g>
<!-- LogrequestModule&#45;&gt;AppModule -->
<g id="edge2" class="edge">
<title>LogrequestModule&#45;&gt;AppModule</title>
<path fill="none" stroke="black" d="M471.98,-198.21C471.98,-235.06 471.98,-315 471.98,-315 471.98,-315 582.28,-315 582.28,-315"/>
<polygon fill="black" stroke="black" points="582.28,-318.5 592.28,-315 582.28,-311.5 582.28,-318.5"/>
</g>
<!-- ServerConfigModule -->
<g id="node3" class="node">
<title>ServerConfigModule</title>
<polygon fill="#8dd3c7" stroke="black" points="727.47,-198 724.47,-202 703.47,-202 700.47,-198 592.53,-198 592.53,-162 727.47,-162 727.47,-198"/>
<text text-anchor="middle" x="660" y="-175.8" font-family="Times,serif" font-size="14.00">ServerConfigModule</text>
</g>
<!-- ServerConfigModule&#45;&gt;AppModule -->
<g id="edge3" class="edge">
<title>ServerConfigModule&#45;&gt;AppModule</title>
<path fill="none" stroke="black" d="M648.06,-198.14C648.06,-198.14 648.06,-292.93 648.06,-292.93"/>
<polygon fill="black" stroke="black" points="644.56,-292.92 648.06,-302.93 651.56,-292.93 644.56,-292.92"/>
</g>
<!-- UserModule -->
<g id="node4" class="node">
<title>UserModule</title>
<polygon fill="#8dd3c7" stroke="black" points="966.98,-198 963.98,-202 942.98,-202 939.98,-198 881.02,-198 881.02,-162 966.98,-162 966.98,-198"/>
<text text-anchor="middle" x="924" y="-175.8" font-family="Times,serif" font-size="14.00">UserModule</text>
</g>
<!-- UserModule&#45;&gt;AuthModule -->
<g id="edge7" class="edge">
<title>UserModule&#45;&gt;AuthModule</title>
<path fill="none" stroke="black" d="M902.51,-198.31C902.51,-218.15 902.51,-247 902.51,-247 902.51,-247 589.85,-247 589.85,-247"/>
<polygon fill="black" stroke="black" points="589.85,-243.5 579.85,-247 589.85,-250.5 589.85,-243.5"/>
</g>
<!-- UserModule&#45;&gt;AppModule -->
<g id="edge4" class="edge">
<title>UserModule&#45;&gt;AppModule</title>
<path fill="none" stroke="black" d="M924,-198.03C924,-237.28 924,-327 924,-327 924,-327 685.86,-327 685.86,-327"/>
<polygon fill="black" stroke="black" points="685.86,-323.5 675.86,-327 685.86,-330.5 685.86,-323.5"/>
</g>
<!-- UserService  -->
<g id="node12" class="node">
<title>UserService </title>
<polygon fill="#fb8072" stroke="black" points="1234.9,-274 1147.1,-274 1147.1,-238 1234.9,-238 1234.9,-274"/>
<text text-anchor="middle" x="1191" y="-251.8" font-family="Times,serif" font-size="14.00">UserService </text>
</g>
<!-- UserModule&#45;&gt;UserService  -->
<g id="edge12" class="edge">
<title>UserModule&#45;&gt;UserService </title>
<path fill="none" stroke="black" stroke-dasharray="5,2" d="M967.19,-180C1042.76,-180 1191,-180 1191,-180 1191,-180 1191,-227.99 1191,-227.99"/>
<polygon fill="black" stroke="black" points="1187.5,-227.99 1191,-237.99 1194.5,-227.99 1187.5,-227.99"/>
</g>
<!-- WebclientModule -->
<g id="node5" class="node">
<title>WebclientModule</title>
<polygon fill="#8dd3c7" stroke="black" points="862.58,-198 859.58,-202 838.58,-202 835.58,-198 745.42,-198 745.42,-162 862.58,-162 862.58,-198"/>
<text text-anchor="middle" x="804" y="-175.8" font-family="Times,serif" font-size="14.00">WebclientModule</text>
</g>
<!-- WebclientModule&#45;&gt;AppModule -->
<g id="edge5" class="edge">
<title>WebclientModule&#45;&gt;AppModule</title>
<path fill="none" stroke="black" d="M804,-198.21C804,-235.06 804,-315 804,-315 804,-315 686.02,-315 686.02,-315"/>
<polygon fill="black" stroke="black" points="686.02,-311.5 676.02,-315 686.02,-318.5 686.02,-311.5"/>
</g>
<!-- AppService -->
<g id="node7" class="node">
<title>AppService</title>
<ellipse fill="#fdb462" stroke="black" cx="371" cy="-256" rx="56.74" ry="18"/>
<text text-anchor="middle" x="371" y="-251.8" font-family="Times,serif" font-size="14.00">AppService</text>
</g>
<!-- AppService&#45;&gt;AppModule -->
<g id="edge6" class="edge">
<title>AppService&#45;&gt;AppModule</title>
<path fill="none" stroke="black" d="M371,-274.28C371,-295.32 371,-327 371,-327 371,-327 582.33,-327 582.33,-327"/>
<polygon fill="black" stroke="black" points="582.33,-330.5 592.33,-327 582.33,-323.5 582.33,-330.5"/>
</g>
<!-- AuthService -->
<g id="node8" class="node">
<title>AuthService</title>
<ellipse fill="#fdb462" stroke="black" cx="215" cy="-180" rx="59.11" ry="18"/>
<text text-anchor="middle" x="215" y="-175.8" font-family="Times,serif" font-size="14.00">AuthService</text>
</g>
<!-- AuthService&#45;&gt;AuthModule -->
<g id="edge8" class="edge">
<title>AuthService&#45;&gt;AuthModule</title>
<path fill="none" stroke="black" d="M274.33,-180C340.89,-180 439.68,-180 439.68,-180 439.68,-180 439.68,-256 439.68,-256 439.68,-256 482.35,-256 482.35,-256"/>
<polygon fill="black" stroke="black" points="482.35,-259.5 492.35,-256 482.35,-252.5 482.35,-259.5"/>
</g>
<!-- JwtStrategy -->
<g id="node9" class="node">
<title>JwtStrategy</title>
<ellipse fill="#fdb462" stroke="black" cx="81" cy="-180" rx="56.76" ry="18"/>
<text text-anchor="middle" x="81" y="-175.8" font-family="Times,serif" font-size="14.00">JwtStrategy</text>
</g>
<!-- JwtStrategy&#45;&gt;AuthModule -->
<g id="edge9" class="edge">
<title>JwtStrategy&#45;&gt;AuthModule</title>
<path fill="none" stroke="black" d="M81,-198.11C81,-207.9 81,-218 81,-218 81,-218 533.25,-218 533.25,-218 533.25,-218 533.25,-227.89 533.25,-227.89"/>
<polygon fill="black" stroke="black" points="529.75,-227.89 533.25,-237.89 536.75,-227.89 529.75,-227.89"/>
</g>
<!-- LogrequestService -->
<g id="node10" class="node">
<title>LogrequestService</title>
<ellipse fill="#fdb462" stroke="black" cx="445" cy="-104" rx="83.37" ry="18"/>
<text text-anchor="middle" x="445" y="-99.8" font-family="Times,serif" font-size="14.00">LogrequestService</text>
</g>
<!-- LogrequestService&#45;&gt;LogrequestModule -->
<g id="edge10" class="edge">
<title>LogrequestService&#45;&gt;LogrequestModule</title>
<path fill="none" stroke="black" d="M490.08,-119.38C490.08,-119.38 490.08,-151.97 490.08,-151.97"/>
<polygon fill="black" stroke="black" points="486.58,-151.97 490.08,-161.97 493.58,-151.97 486.58,-151.97"/>
</g>
<!-- ServerConfigService -->
<g id="node11" class="node">
<title>ServerConfigService</title>
<ellipse fill="#fdb462" stroke="black" cx="660" cy="-104" rx="92.03" ry="18"/>
<text text-anchor="middle" x="660" y="-99.8" font-family="Times,serif" font-size="14.00">ServerConfigService</text>
</g>
<!-- ServerConfigService&#45;&gt;ServerConfigModule -->
<g id="edge11" class="edge">
<title>ServerConfigService&#45;&gt;ServerConfigModule</title>
<path fill="none" stroke="black" d="M660,-122.01C660,-122.01 660,-151.85 660,-151.85"/>
<polygon fill="black" stroke="black" points="656.5,-151.85 660,-161.85 663.5,-151.85 656.5,-151.85"/>
</g>
<!-- UserService -->
<g id="node13" class="node">
<title>UserService</title>
<ellipse fill="#fdb462" stroke="black" cx="1065" cy="-256" rx="58.44" ry="18"/>
<text text-anchor="middle" x="1065" y="-251.8" font-family="Times,serif" font-size="14.00">UserService</text>
</g>
<!-- UserService&#45;&gt;UserModule -->
<g id="edge13" class="edge">
<title>UserService&#45;&gt;UserModule</title>
<path fill="none" stroke="black" d="M1006.65,-256C976.31,-256 945.49,-256 945.49,-256 945.49,-256 945.49,-208.01 945.49,-208.01"/>
<polygon fill="black" stroke="black" points="948.99,-208.01 945.49,-198.01 941.99,-208.01 948.99,-208.01"/>
</g>
<!-- WebclientService -->
<g id="node14" class="node">
<title>WebclientService</title>
<ellipse fill="#fdb462" stroke="black" cx="872" cy="-104" rx="79.85" ry="18"/>
<text text-anchor="middle" x="872" y="-99.8" font-family="Times,serif" font-size="14.00">WebclientService</text>
</g>
<!-- WebclientService&#45;&gt;WebclientModule -->
<g id="edge14" class="edge">
<title>WebclientService&#45;&gt;WebclientModule</title>
<path fill="none" stroke="black" d="M827.43,-119.02C827.43,-119.02 827.43,-151.8 827.43,-151.8"/>
<polygon fill="black" stroke="black" points="823.93,-151.8 827.43,-161.8 830.93,-151.8 823.93,-151.8"/>
</g>
</g>
</svg>
